<?xml version="1.0" encoding="UTF-8"?>
<svg id="Layer_1" xmlns="http://www.w3.org/2000/svg" version="1.1" viewBox="0 0 43.27 18">
  <!-- Generator: Adobe Illustrator 29.0.1, SVG Export Plug-In . SVG Version: 2.1.0 Build 192)  -->
  <defs>
    <style>
      .st0 {
        fill: #fff;
      }
    </style>
  </defs>
  <path class="st0" d="M5.11,5.3c.13.06.23.11.29.15l-.61,1.25c-.07-.04-.15-.07-.25-.1-.03-.01-.08-.02-.16-.03-.29,0-.52.06-.67.19s-.23.29-.23.5c0,.07,0,.14.02.21.04.15.11.27.22.36.11.09.24.15.4.17.25,0,.44-.04.57-.13.01-.01.03-.02.05-.03.02-.01.03-.02.05-.03l.76.99c-.16.14-.29.24-.38.29-.44.28-.91.42-1.38.42-.33,0-.65-.07-.95-.21-.3-.14-.55-.33-.75-.59-.2-.25-.34-.55-.4-.89-.03-.19-.05-.37-.05-.55,0-.32.05-.62.16-.89.11-.27.26-.51.47-.71.2-.2.45-.36.73-.47.28-.11.59-.17.92-.17.14,0,.29.01.48.04.23.04.48.11.73.21"/>
  <path class="st0" d="M7.93,9.51c-.46,0-.86-.09-1.22-.28-.35-.19-.63-.45-.83-.79-.2-.34-.3-.73-.3-1.17,0-.39.08-.74.25-1.06s.39-.57.69-.77c.3-.2.64-.32,1.03-.37.14-.02.27-.02.39-.02.34,0,.66.05.94.16.28.11.53.26.73.46.2.2.36.43.47.71.11.27.17.57.17.9s-.05.63-.16.9c-.11.27-.27.51-.48.71-.21.2-.46.36-.74.46-.28.11-.59.16-.94.16M7.31,7.27c0,.16.03.29.08.4.05.11.12.19.21.26.12.07.23.1.33.1s.2-.03.32-.1c.09-.05.16-.14.21-.25.06-.11.08-.24.08-.39,0-.04,0-.1-.02-.17-.03-.22-.13-.38-.28-.48-.11-.07-.21-.1-.32-.1s-.21.03-.33.1c-.09.06-.16.14-.21.25-.05.11-.08.24-.08.39"/>
  <path class="st0" d="M12.46,11h-1.84v-5.96h1.84v.54c.06-.12.38-.53,1.06-.55.1,0,.51-.05.98.28.13.09.41.34.59.69.05.1.08.23.12.35.08.26.11.54.11.83,0,.42-.06.79-.19,1.12-.12.33-.29.59-.51.79-.22.2-.46.33-.74.39-.14.03-.27.04-.38.04-.42,0-.74-.15-.95-.46-.03-.04-.06-.1-.1-.2v2.14ZM12.33,7.26c0,.08,0,.14,0,.18.03.18.09.32.17.41.08.09.19.15.33.17.07.01.11.02.14.02.16,0,.29-.05.39-.16.11-.11.17-.25.2-.44v-.37c-.05-.28-.17-.46-.36-.54-.08-.03-.16-.05-.25-.05-.15,0-.28.05-.39.15-.12.1-.19.24-.22.42-.01.09-.02.16-.02.21"/>
  <path class="st0" d="M22.6,9.52h-1.84v-4.48h1.84v.69s.14-.3.32-.46c.34-.3,1.05-.21,1.31-.22v1.58c-.4,0-.97-.02-1.25.15-.13.08-.24.19-.3.34-.06.15-.09.35-.09.61v1.8Z"/>
  <path class="st0" d="M26.51,9.52h-1.84v-4.48h1.84v.62h0s.09-.15.09-.15c.2-.25.38-.52,1.3-.48.49.02.85.15,1.04.59.12.27.16.55.16.99v2.9h-1.84v-2.37c0-.43-.11-.65-.34-.65-.04,0-.08,0-.14.03-.1.03-.17.1-.21.21-.04.11-.06.29-.06.54v2.24Z"/>
  <path class="st0" d="M35.13,5.3c.13.06.23.11.29.15l-.61,1.26c-.07-.04-.15-.07-.25-.1-.03-.01-.08-.02-.16-.03-.29,0-.52.06-.67.19-.15.13-.23.29-.23.5,0,.07,0,.14.02.21.04.15.11.27.22.36.11.09.24.15.4.17.25,0,.44-.04.57-.13.01-.01.03-.02.05-.03.02-.01.03-.02.05-.03l.76.99c-.16.14-.29.24-.38.29-.44.28-.91.42-1.38.42-.33,0-.65-.07-.95-.21-.3-.14-.55-.33-.75-.59-.2-.25-.34-.55-.4-.89-.03-.19-.05-.37-.05-.55,0-.32.05-.62.16-.89.11-.27.26-.51.47-.71.2-.2.45-.36.73-.47.28-.11.59-.17.92-.17.14,0,.29.01.48.04.23.04.48.11.73.21"/>
  <path class="st0" d="M38.06,9.09c-.06-.03-.09-.06-.12-.07l.46-1.24c.12.12.28.22.47.31.26.12.48.17.63.17.14,0,.23-.04.29-.11.04-.04.05-.09.05-.13,0-.07-.05-.13-.15-.17-.06-.02-.11-.04-.15-.05l-.1-.02-.15-.03-.13-.03-.14-.03c-.27-.07-.48-.21-.64-.42-.16-.21-.24-.44-.24-.7,0-.22.05-.42.15-.61.09-.2.22-.36.38-.5.16-.14.35-.24.59-.31.23-.07.49-.11.77-.11.25,0,.51.03.78.08.18.03.37.08.57.15l.08.02.08.04-.38,1.23c-.16-.1-.32-.18-.5-.24-.18-.05-.31-.07-.38-.07-.11,0-.19.02-.23.03-.1.02-.15.08-.15.17,0,.03.01.06.03.1.03.04.09.08.16.1.01,0,.03,0,.04.01.01,0,.02,0,.04.01l.09.02.17.04.09.02.18.03c.18.04.35.11.49.22.14.11.26.24.33.4.08.16.12.34.12.53,0,.11-.02.23-.05.36-.06.24-.17.45-.33.64-.17.18-.38.33-.65.43-.27.1-.58.16-.93.16-.13,0-.27,0-.4-.02-.25-.03-.46-.08-.65-.14-.18-.06-.38-.15-.59-.26"/>
  <path class="st0" d="M31.24,9.52c-.03-.16-.06-.33-.06-.5v-3.98h-1.57v3.98c0,.17.01.34.04.5h1.59Z"/>
  <path class="st0" d="M35.96,5.15v3.87c0,1.31-1.07,2.39-2.38,2.39-.96,0-1.79-.58-2.17-1.4h-1.66c.44,1.7,1.98,2.96,3.82,2.96,2.18,0,3.95-1.77,3.95-3.95v-3.87h-1.57Z"/>
  <path class="st0" d="M19.99,6.07c-.19-.34-.45-.59-.78-.77-.33-.18-.7-.27-1.12-.27-.21,0-.42.02-.61.06-.24.04-.47.13-.69.26-.22.13-.41.3-.57.5s-.29.43-.38.69c-.1.27-.15.55-.15.83,0,.4.1.76.3,1.08.2.33.47.58.83.77.35.19.75.28,1.19.28.46,0,.85-.08,1.18-.25.26-.14.49-.31.66-.52.18-.21.3-.44.38-.69h0s-1.68,0-1.68,0c-.03.06-.08.12-.13.17-.09.07-.2.1-.32.1-.07,0-.12,0-.15-.02-.12-.03-.22-.09-.31-.19-.09-.1-.15-.22-.18-.36,0-.05,0-.1,0-.13h2.9v-.36c-.03-.46-.15-.85-.34-1.19M17.42,6.8s0-.08.02-.13c.02-.1.05-.18.1-.26.05-.08.11-.14.18-.19.1-.07.21-.1.33-.1.08,0,.15.02.23.05.19.08.31.25.36.5,0,.03,0,.08,0,.13h-1.23Z"/>
</svg>
