<?xml version="1.0" encoding="UTF-8"?>
<svg id="Layer_1" xmlns="http://www.w3.org/2000/svg" version="1.1" viewBox="0 0 18.98 18">
  <!-- Generator: Adobe Illustrator 29.0.1, SVG Export Plug-In . SVG Version: 2.1.0 Build 192)  -->
  <defs>
    <style>
      .st0 {
        fill: #f05a22;
      }
    </style>
  </defs>
  <path class="st0" d="M18.11,8.99c0-4.76-3.87-8.64-8.63-8.64S.84,4.22.84,8.99s3.87,8.64,8.63,8.64c1.18,0,2.31-.24,3.33-.67.47.43,1.1.7,1.78.7,1.46,0,2.64-1.18,2.64-2.64,0-.54-.16-1.03-.44-1.45.83-1.33,1.32-2.89,1.32-4.57ZM7.32,2.6c2.1,0,3.81,1.71,3.81,3.81s-1.71,3.81-3.81,3.81-3.81-1.71-3.81-3.81,1.71-3.81,3.81-3.81ZM14.59,16.26c-.69,0-1.25-.56-1.25-1.25,0-.69.56-1.25,1.25-1.25.69,0,1.25.56,1.25,1.25,0,.69-.56,1.25-1.25,1.25ZM15.73,12.63c-.34-.16-.73-.26-1.13-.26-1.46,0-2.64,1.18-2.64,2.64,0,.26.04.5.11.74-.8.31-1.67.49-2.58.49-3.99,0-7.24-3.25-7.24-7.25,0-.39.04-.76.1-1.13.63,2.16,2.63,3.75,4.99,3.75,2.87,0,5.2-2.33,5.2-5.2,0-2.04-1.18-3.8-2.89-4.65,3.93.08,7.09,3.29,7.09,7.24,0,1.33-.37,2.57-1,3.64Z"/>
</svg>
